<svg width="21" height="20" viewBox="0 0 21 20" fill="none" xmlns="http://www.w3.org/2000/svg">
<path d="M1 0.958496L3.08 1.3185L4.043 12.7915C4.12 13.7285 4.903 14.4475 5.843 14.4445H16.752C17.649 14.4465 18.41 13.7865 18.537 12.8985L19.486 6.3405C19.592 5.6075 19.083 4.9275 18.351 4.8215C18.287 4.8125 3.414 4.8075 3.414 4.8075" stroke="white" stroke-width="1.5" stroke-linecap="round" stroke-linejoin="round"/>
<path d="M12.375 8.50342H15.148" stroke="white" stroke-width="1.5" stroke-linecap="round" stroke-linejoin="round"/>
<path fill-rule="evenodd" clip-rule="evenodd" d="M5.40435 17.9111C5.70535 17.9111 5.94835 18.1551 5.94835 18.4551C5.94835 18.7561 5.70535 19.0001 5.40435 19.0001C5.10335 19.0001 4.86035 18.7561 4.86035 18.4551C4.86035 18.1551 5.10335 17.9111 5.40435 17.9111Z" fill="white" stroke="white" stroke-width="1.5" stroke-linecap="round" stroke-linejoin="round"/>
<path fill-rule="evenodd" clip-rule="evenodd" d="M16.6846 17.9111C16.9856 17.9111 17.2296 18.1551 17.2296 18.4551C17.2296 18.7561 16.9856 19.0001 16.6846 19.0001C16.3836 19.0001 16.1406 18.7561 16.1406 18.4551C16.1406 18.1551 16.3836 17.9111 16.6846 17.9111Z" fill="white" stroke="white" stroke-width="1.5" stroke-linecap="round" stroke-linejoin="round"/>
</svg>
