<svg width="25" height="25" viewBox="0 0 25 25" fill="none" xmlns="http://www.w3.org/2000/svg">
<rect x="0.5" y="0.5" width="24" height="24" stroke="#F7BD7F"/>
<path d="M5.5 15.5L4.96967 14.9697L4.75 15.1893V15.5H5.5ZM15.5 5.5L16.0303 4.96967C15.7374 4.67678 15.2626 4.67678 14.9697 4.96967L15.5 5.5ZM19.5 9.5L20.0303 10.0303C20.3232 9.73744 20.3232 9.26256 20.0303 8.96967L19.5 9.5ZM9.5 19.5V20.25H9.81066L10.0303 20.0303L9.5 19.5ZM5.5 19.5H4.75C4.75 19.9142 5.08579 20.25 5.5 20.25V19.5ZM6.03033 16.0303L16.0303 6.03033L14.9697 4.96967L4.96967 14.9697L6.03033 16.0303ZM14.9697 6.03033L18.9697 10.0303L20.0303 8.96967L16.0303 4.96967L14.9697 6.03033ZM18.9697 8.96967L8.96967 18.9697L10.0303 20.0303L20.0303 10.0303L18.9697 8.96967ZM9.5 18.75H5.5V20.25H9.5V18.75ZM6.25 19.5V15.5H4.75V19.5H6.25Z" fill="#F7BD7F"/>
</svg>
