<svg width="24" height="24" viewBox="0 0 24 24" fill="none" xmlns="http://www.w3.org/2000/svg">
<path d="M9.64903 9.66055H10.399V8.91055V6.41423C10.399 4.9229 10.8539 3.76711 11.5913 2.98989C12.3248 2.21678 13.4018 1.75014 14.785 1.75C14.7852 1.75 14.7854 1.75 14.7856 1.75L17.2489 1.75406V4.51037L15.6915 4.51094C15.6914 4.51094 15.6913 4.51094 15.6912 4.51094C14.9829 4.51097 14.3157 4.64597 13.8761 5.15739C13.4614 5.63999 13.4157 6.28 13.4157 6.79439V8.91055V9.66055H14.1657H17.1186L17.1175 12.6749H14.1657H13.4157V13.4249V22.25H10.399V13.4249V12.6749H9.64903H7.16992V9.66055H9.64903ZM17.5624 4.51025H17.5621H17.5624Z" stroke="white" stroke-width="1.5"/>
</svg>
