<svg width="24" height="25" viewBox="0 0 24 25" fill="none" xmlns="http://www.w3.org/2000/svg">
<mask id="path-1-inside-1_1_187" fill="white">
<path fill-rule="evenodd" clip-rule="evenodd" d="M3.05041 4.42099C2 5.86675 2 7.96244 2 12.1538C2 16.3452 2 18.4409 3.05041 19.8866C3.38964 20.3535 3.80026 20.7642 4.26718 21.1034C5.71294 22.1538 7.80863 22.1538 12 22.1538C16.1914 22.1538 18.2871 22.1538 19.7328 21.1034C20.1997 20.7642 20.6104 20.3535 20.9496 19.8866C22 18.4409 22 16.3452 22 12.1538C22 7.96244 22 5.86675 20.9496 4.42099C20.6104 3.95407 20.1997 3.54345 19.7328 3.20422C18.2871 2.15381 16.1914 2.15381 12 2.15381C7.80863 2.15381 5.71294 2.15381 4.26718 3.20422C3.80026 3.54345 3.38964 3.95407 3.05041 4.42099ZM8.37317 12.1538C8.37317 10.1509 9.99711 8.52692 12.0001 8.52692C14.003 8.52692 15.627 10.1509 15.627 12.1538C15.627 14.1568 14.003 15.7807 12.0001 15.7807C9.99711 15.7807 8.37317 14.1568 8.37317 12.1538Z"/>
</mask>
<path d="M3.05041 4.42099L4.26393 5.30267H4.26393L3.05041 4.42099ZM3.05041 19.8866L4.26393 19.0049H4.26393L3.05041 19.8866ZM4.26718 21.1034L5.14886 19.8899H5.14886L4.26718 21.1034ZM19.7328 21.1034L18.8511 19.8899L19.7328 21.1034ZM20.9496 19.8866L19.7361 19.0049L20.9496 19.8866ZM20.9496 4.42099L19.7361 5.30267V5.30267L20.9496 4.42099ZM19.7328 3.20422L18.8511 4.41774V4.41774L19.7328 3.20422ZM4.26718 3.20422L5.14886 4.41774V4.41774L4.26718 3.20422ZM3.5 12.1538C3.5 10.025 3.50201 8.5475 3.62281 7.4172C3.74089 6.31231 3.95772 5.72414 4.26393 5.30267L1.83688 3.53931C1.09269 4.5636 0.784314 5.74615 0.639795 7.09839C0.497993 8.42521 0.5 10.0912 0.5 12.1538H3.5ZM4.26393 19.0049C3.95772 18.5835 3.74089 17.9953 3.62281 16.8904C3.50201 15.7601 3.5 14.2826 3.5 12.1538H0.5C0.5 14.2164 0.497993 15.8824 0.639795 17.2092C0.784314 18.5615 1.09269 19.744 1.83688 20.7683L4.26393 19.0049ZM5.14886 19.8899C4.80928 19.6432 4.51065 19.3445 4.26393 19.0049L1.83688 20.7683C2.26864 21.3626 2.79124 21.8852 3.3855 22.3169L5.14886 19.8899ZM12 20.6538C9.87122 20.6538 8.39369 20.6518 7.26339 20.531C6.15851 20.4129 5.57033 20.1961 5.14886 19.8899L3.3855 22.3169C4.40979 23.0611 5.59234 23.3695 6.94458 23.514C8.2714 23.6558 9.93741 23.6538 12 23.6538V20.6538ZM18.8511 19.8899C18.4297 20.1961 17.8415 20.4129 16.7366 20.531C15.6063 20.6518 14.1288 20.6538 12 20.6538V23.6538C14.0626 23.6538 15.7286 23.6558 17.0554 23.514C18.4077 23.3695 19.5902 23.0611 20.6145 22.3169L18.8511 19.8899ZM19.7361 19.0049C19.4893 19.3445 19.1907 19.6432 18.8511 19.8899L20.6145 22.3169C21.2088 21.8852 21.7314 21.3626 22.1631 20.7683L19.7361 19.0049ZM20.5 12.1538C20.5 14.2826 20.498 15.7601 20.3772 16.8904C20.2591 17.9953 20.0423 18.5835 19.7361 19.0049L22.1631 20.7683C22.9073 19.744 23.2157 18.5615 23.3602 17.2092C23.502 15.8824 23.5 14.2164 23.5 12.1538H20.5ZM19.7361 5.30267C20.0423 5.72414 20.2591 6.31232 20.3772 7.4172C20.498 8.5475 20.5 10.025 20.5 12.1538H23.5C23.5 10.0912 23.502 8.42521 23.3602 7.09839C23.2157 5.74615 22.9073 4.5636 22.1631 3.53931L19.7361 5.30267ZM18.8511 4.41774C19.1907 4.66446 19.4893 4.96309 19.7361 5.30267L22.1631 3.53931C21.7314 2.94505 21.2088 2.42245 20.6145 1.99069L18.8511 4.41774ZM12 3.65381C14.1288 3.65381 15.6063 3.65582 16.7366 3.77662C17.8415 3.8947 18.4297 4.11152 18.8511 4.41774L20.6145 1.99069C19.5902 1.2465 18.4077 0.938122 17.0554 0.793603C15.7286 0.651801 14.0626 0.653809 12 0.653809V3.65381ZM5.14886 4.41774C5.57033 4.11152 6.15851 3.8947 7.26339 3.77662C8.39369 3.65582 9.87122 3.65381 12 3.65381V0.653809C9.93741 0.653809 8.2714 0.651801 6.94458 0.793603C5.59234 0.938122 4.40979 1.2465 3.3855 1.99069L5.14886 4.41774ZM4.26393 5.30267C4.51065 4.96309 4.80928 4.66446 5.14886 4.41774L3.3855 1.99069C2.79124 2.42245 2.26864 2.94505 1.83688 3.53931L4.26393 5.30267ZM12.0001 7.02692C9.16868 7.02692 6.87317 9.32243 6.87317 12.1538H9.87317C9.87317 10.9793 10.8255 10.0269 12.0001 10.0269V7.02692ZM17.127 12.1538C17.127 9.32243 14.8314 7.02692 12.0001 7.02692V10.0269C13.1746 10.0269 14.127 10.9793 14.127 12.1538H17.127ZM12.0001 17.2807C14.8314 17.2807 17.127 14.9852 17.127 12.1538H14.127C14.127 13.3283 13.1746 14.2807 12.0001 14.2807V17.2807ZM6.87317 12.1538C6.87317 14.9852 9.16868 17.2807 12.0001 17.2807V14.2807C10.8255 14.2807 9.87317 13.3283 9.87317 12.1538H6.87317Z" fill="white" mask="url(#path-1-inside-1_1_187)"/>
<circle cx="17.3897" cy="6.85148" r="1.22551" fill="white"/>
</svg>
