<svg width="20" height="21" viewBox="0 0 20 21" fill="none" xmlns="http://www.w3.org/2000/svg">
<path d="M0.750122 1.25L2.83012 1.61L3.79312 13.083C3.87012 14.02 4.65312 14.739 5.59312 14.736H16.5021C17.3991 14.738 18.1601 14.078 18.2871 13.19L19.2361 6.632C19.3421 5.899 18.8331 5.219 18.1011 5.113C18.0371 5.104 3.16412 5.099 3.16412 5.099" stroke="#464C52" stroke-width="1.5" stroke-linecap="round" stroke-linejoin="round"/>
<path d="M12.1251 8.79492H14.8981" stroke="#464C52" stroke-width="1.5" stroke-linecap="round" stroke-linejoin="round"/>
<path fill-rule="evenodd" clip-rule="evenodd" d="M5.15441 18.2026C5.45541 18.2026 5.69841 18.4466 5.69841 18.7466C5.69841 19.0476 5.45541 19.2916 5.15441 19.2916C4.85341 19.2916 4.61041 19.0476 4.61041 18.7466C4.61041 18.4466 4.85341 18.2026 5.15441 18.2026Z" fill="#464C52" stroke="#464C52" stroke-width="1.5" stroke-linecap="round" stroke-linejoin="round"/>
<path fill-rule="evenodd" clip-rule="evenodd" d="M16.4347 18.2026C16.7357 18.2026 16.9797 18.4466 16.9797 18.7466C16.9797 19.0476 16.7357 19.2916 16.4347 19.2916C16.1337 19.2916 15.8907 19.0476 15.8907 18.7466C15.8907 18.4466 16.1337 18.2026 16.4347 18.2026Z" fill="#464C52" stroke="#464C52" stroke-width="1.5" stroke-linecap="round" stroke-linejoin="round"/>
</svg>
