<svg width="215" height="136" viewBox="0 0 215 136" fill="none" xmlns="http://www.w3.org/2000/svg">
<rect width="215" height="136" rx="20" fill="#1D393C"/>
<rect x="144" y="57" width="49" height="23" fill="white"/>
<rect x="1" y="24" width="213" height="23" fill="white"/>
<circle cx="168.5" cy="68.5" r="17" fill="white" stroke="#EE2B2B"/>
<path d="M161.162 73.776V75H154.25V73.776H157.013V64.983C157.013 64.719 157.022 64.452 157.04 64.182L154.745 66.153C154.667 66.219 154.589 66.261 154.511 66.279C154.433 66.291 154.361 66.291 154.295 66.279C154.229 66.267 154.166 66.243 154.106 66.207C154.052 66.171 154.01 66.132 153.98 66.09L153.476 65.397L157.319 62.076H158.624V73.776H161.162ZM171.324 73.479C171.498 73.479 171.636 73.53 171.738 73.632C171.84 73.734 171.891 73.866 171.891 74.028V75H163.287V74.451C163.287 74.337 163.311 74.22 163.359 74.1C163.407 73.98 163.482 73.869 163.584 73.767L167.715 69.618C168.057 69.27 168.369 68.937 168.651 68.619C168.933 68.295 169.173 67.971 169.371 67.647C169.569 67.323 169.722 66.996 169.83 66.666C169.938 66.33 169.992 65.973 169.992 65.595C169.992 65.217 169.932 64.887 169.812 64.605C169.692 64.317 169.527 64.08 169.317 63.894C169.113 63.708 168.87 63.57 168.588 63.48C168.306 63.384 168.003 63.336 167.679 63.336C167.349 63.336 167.046 63.384 166.77 63.48C166.494 63.576 166.248 63.711 166.032 63.885C165.822 64.053 165.645 64.254 165.501 64.488C165.357 64.722 165.255 64.98 165.195 65.262C165.123 65.472 165.024 65.613 164.898 65.685C164.778 65.751 164.607 65.769 164.385 65.739L163.548 65.595C163.632 65.007 163.794 64.488 164.034 64.038C164.28 63.582 164.586 63.201 164.952 62.895C165.324 62.589 165.747 62.358 166.221 62.202C166.695 62.04 167.208 61.959 167.76 61.959C168.306 61.959 168.816 62.04 169.29 62.202C169.764 62.364 170.175 62.601 170.523 62.913C170.871 63.219 171.144 63.594 171.342 64.038C171.54 64.482 171.639 64.986 171.639 65.55C171.639 66.03 171.567 66.477 171.423 66.891C171.279 67.299 171.084 67.689 170.838 68.061C170.592 68.433 170.307 68.796 169.983 69.15C169.665 69.504 169.326 69.861 168.966 70.221L165.564 73.695C165.804 73.629 166.047 73.578 166.293 73.542C166.539 73.5 166.776 73.479 167.004 73.479H171.324ZM174.053 65.595C174.137 65.007 174.299 64.488 174.539 64.038C174.779 63.582 175.082 63.201 175.448 62.895C175.82 62.589 176.243 62.358 176.717 62.202C177.197 62.04 177.713 61.959 178.265 61.959C178.811 61.959 179.315 62.037 179.777 62.193C180.239 62.349 180.635 62.571 180.965 62.859C181.301 63.147 181.562 63.495 181.748 63.903C181.934 64.311 182.027 64.764 182.027 65.262C182.027 65.67 181.973 66.036 181.865 66.36C181.763 66.678 181.613 66.957 181.415 67.197C181.223 67.437 180.989 67.641 180.713 67.809C180.437 67.977 180.128 68.115 179.786 68.223C180.626 68.439 181.256 68.811 181.676 69.339C182.102 69.861 182.315 70.515 182.315 71.301C182.315 71.895 182.201 72.429 181.973 72.903C181.751 73.377 181.445 73.782 181.055 74.118C180.665 74.448 180.209 74.703 179.687 74.883C179.171 75.057 178.616 75.144 178.022 75.144C177.338 75.144 176.753 75.06 176.267 74.892C175.781 74.718 175.37 74.481 175.034 74.181C174.698 73.881 174.422 73.527 174.206 73.119C173.99 72.705 173.807 72.258 173.657 71.778L174.35 71.49C174.53 71.412 174.704 71.391 174.872 71.427C175.046 71.463 175.172 71.562 175.25 71.724C175.328 71.892 175.424 72.093 175.538 72.327C175.658 72.561 175.82 72.786 176.024 73.002C176.228 73.218 176.486 73.401 176.798 73.551C177.116 73.701 177.518 73.776 178.004 73.776C178.454 73.776 178.847 73.704 179.183 73.56C179.525 73.41 179.807 73.218 180.029 72.984C180.257 72.75 180.428 72.489 180.542 72.201C180.656 71.913 180.713 71.628 180.713 71.346C180.713 70.998 180.668 70.68 180.578 70.392C180.488 70.104 180.32 69.855 180.074 69.645C179.828 69.435 179.489 69.27 179.057 69.15C178.631 69.03 178.082 68.97 177.41 68.97V67.809C177.962 67.803 178.43 67.743 178.814 67.629C179.204 67.515 179.519 67.359 179.759 67.161C180.005 66.963 180.182 66.726 180.29 66.45C180.404 66.174 180.461 65.868 180.461 65.532C180.461 65.16 180.401 64.836 180.281 64.56C180.167 64.284 180.008 64.056 179.804 63.876C179.6 63.696 179.357 63.561 179.075 63.471C178.799 63.381 178.499 63.336 178.175 63.336C177.851 63.336 177.548 63.384 177.266 63.48C176.99 63.576 176.744 63.711 176.528 63.885C176.318 64.053 176.141 64.254 175.997 64.488C175.853 64.722 175.751 64.98 175.691 65.262C175.613 65.472 175.514 65.613 175.394 65.685C175.28 65.751 175.112 65.769 174.89 65.739L174.053 65.595Z" fill="#2C2E34"/>
</svg>
