<svg width="191" height="90" viewBox="0 0 191 90" fill="none" xmlns="http://www.w3.org/2000/svg">
<path d="M39.9637 56.8779H33.7832L37.6459 33.139H43.827L39.9637 56.8779ZM28.5838 33.139L22.6917 49.4668L21.9944 45.9508L21.9951 45.9521L19.9154 35.2764C19.9154 35.2764 19.664 33.139 16.9836 33.139H7.24272L7.12842 33.541C7.12842 33.541 10.1072 34.1607 13.5934 36.2543L18.9629 56.8785H25.4025L35.2355 33.139H28.5838ZM77.1964 56.8779H82.8714L77.9234 33.1384H72.9552C70.6609 33.1384 70.1021 34.9075 70.1021 34.9075L60.8844 56.8779H67.3272L68.6156 53.3517H76.4725L77.1964 56.8779ZM70.3955 48.4807L73.6429 39.597L75.4698 48.4807H70.3955ZM61.3677 38.8477L62.2497 33.7499C62.2497 33.7499 59.5281 32.7148 56.6909 32.7148C53.6238 32.7148 46.3404 34.0553 46.3404 40.5736C46.3404 46.7065 54.8888 46.7827 54.8888 50.004C54.8888 53.2254 47.2211 52.6482 44.6906 50.6168L43.7718 55.947C43.7718 55.947 46.5315 57.2875 50.7479 57.2875C54.9656 57.2875 61.3283 55.1037 61.3283 49.1601C61.3283 42.9879 52.7031 42.4132 52.7031 39.7297C52.7037 37.0456 58.7229 37.3904 61.3677 38.8477Z" fill="#2566AF"/>
<path d="M21.9951 45.9507L19.9154 35.2751C19.9154 35.2751 19.664 33.1377 16.9836 33.1377H7.24272L7.12842 33.5397C7.12842 33.5397 11.8103 34.5099 16.301 38.1453C20.5949 41.62 21.9951 45.9507 21.9951 45.9507Z" fill="#E6A540"/>
<g clip-path="url(#clip0_601_9309)">
<path d="M189.719 69.322V69.4505H189.84C189.863 69.4509 189.886 69.4452 189.905 69.4341C189.913 69.4286 189.92 69.4212 189.924 69.4126C189.928 69.404 189.93 69.3945 189.93 69.3849C189.93 69.3756 189.928 69.3662 189.924 69.3579C189.92 69.3495 189.913 69.3423 189.905 69.3371C189.886 69.3254 189.863 69.3197 189.84 69.3207H189.719V69.322ZM189.842 69.231C189.894 69.2279 189.945 69.2426 189.987 69.2728C190.004 69.2865 190.018 69.3039 190.027 69.3237C190.035 69.3434 190.039 69.365 190.038 69.3865C190.039 69.4051 190.036 69.4237 190.029 69.4409C190.022 69.4581 190.011 69.4737 189.997 69.4865C189.965 69.5144 189.924 69.5312 189.881 69.5344L190.044 69.7175H189.918L189.769 69.5356H189.72V69.7175H189.616V69.2313H189.843L189.842 69.231ZM189.809 69.8853C189.864 69.8858 189.918 69.8748 189.969 69.8531C190.017 69.8325 190.061 69.8029 190.099 69.766C190.136 69.7292 190.166 69.6856 190.187 69.6375C190.23 69.5357 190.23 69.4212 190.187 69.3194C190.166 69.2715 190.136 69.2279 190.099 69.1908C190.061 69.154 190.017 69.1244 189.969 69.1038C189.918 69.0833 189.864 69.073 189.809 69.0736C189.754 69.0731 189.698 69.0833 189.647 69.1038C189.597 69.124 189.552 69.1536 189.514 69.1908C189.456 69.2492 189.417 69.3229 189.402 69.4029C189.387 69.4829 189.395 69.5656 189.427 69.6407C189.447 69.689 189.476 69.7327 189.514 69.7693C189.552 69.8065 189.597 69.8361 189.647 69.8563C189.698 69.878 189.753 69.889 189.809 69.8885M189.809 68.9566C189.952 68.9565 190.089 69.0119 190.191 69.1108C190.24 69.1584 190.279 69.2151 190.306 69.2776C190.334 69.3419 190.348 69.411 190.348 69.4809C190.348 69.5507 190.334 69.6199 190.306 69.6841C190.279 69.7463 190.24 69.8029 190.191 69.8509C190.141 69.8981 190.083 69.9362 190.02 69.9633C189.953 69.9913 189.882 70.0055 189.809 70.0051C189.736 70.0056 189.663 69.9914 189.596 69.9633C189.532 69.9369 189.473 69.8987 189.423 69.8509C189.375 69.8011 189.336 69.7427 189.31 69.6786C189.282 69.6144 189.268 69.5453 189.268 69.4754C189.268 69.4055 189.282 69.3364 189.31 69.2721C189.337 69.2096 189.376 69.1529 189.425 69.1054C189.474 69.0567 189.533 69.0184 189.598 68.9929C189.665 68.9648 189.738 68.9506 189.811 68.9511M140.045 67.079C140.045 66.152 140.659 65.3904 141.663 65.3904C142.623 65.3904 143.27 66.1192 143.27 67.079C143.27 68.0389 142.623 68.7677 141.663 68.7677C140.659 68.7677 140.045 68.0061 140.045 67.079ZM144.364 67.079V64.4409H143.204V65.0835C142.836 64.6086 142.278 64.3107 141.519 64.3107C140.024 64.3107 138.851 65.4701 138.851 67.0803C138.851 68.6905 140.023 69.8499 141.519 69.8499C142.278 69.8499 142.836 69.5517 143.204 69.0771V69.7175H144.363V67.079H144.364ZM183.556 67.079C183.556 66.152 184.17 65.3904 185.175 65.3904C186.135 65.3904 186.782 66.1192 186.782 67.079C186.782 68.0389 186.135 68.7677 185.175 68.7677C184.171 68.7677 183.556 68.0061 183.556 67.079ZM187.876 67.079V62.3232H186.715V65.0835C186.347 64.6086 185.789 64.3107 185.03 64.3107C183.535 64.3107 182.362 65.4701 182.362 67.0803C182.362 68.6905 183.535 69.8499 185.03 69.8499C185.789 69.8499 186.347 69.5517 186.715 69.0771V69.7175H187.876V67.079ZM158.76 65.3361C159.508 65.3361 159.988 65.7995 160.11 66.6153H157.342C157.466 65.8538 157.934 65.3361 158.76 65.3361M158.783 64.3078C157.22 64.3078 156.127 65.4325 156.127 67.0774C156.127 68.7545 157.264 69.847 158.861 69.847C159.664 69.847 160.4 69.6488 161.048 69.1079L160.479 68.258C160.032 68.6115 159.463 68.8097 158.927 68.8097C158.18 68.8097 157.499 68.4675 157.332 67.518H161.293C161.304 67.3753 161.316 67.2313 161.316 67.0771C161.304 65.4328 160.276 64.3075 158.783 64.3075M172.787 67.0771C172.787 66.15 173.401 65.3885 174.405 65.3885C175.365 65.3885 176.012 66.1173 176.012 67.0771C176.012 68.0369 175.365 68.7657 174.405 68.7657C173.401 68.7657 172.787 68.0042 172.787 67.0771M177.105 67.0771V64.4409H175.946V65.0835C175.577 64.6086 175.02 64.3107 174.261 64.3107C172.766 64.3107 171.593 65.4701 171.593 67.0803C171.593 68.6905 172.766 69.8499 174.261 69.8499C175.02 69.8499 175.577 69.5517 175.946 69.0771V69.7175H177.106V67.079L177.105 67.0771ZM166.237 67.0771C166.237 68.677 167.363 69.8467 169.082 69.8467C169.886 69.8467 170.421 69.67 171 69.2178L170.443 68.2908C170.007 68.6002 169.55 68.7657 169.045 68.7657C168.119 68.7545 167.438 68.0925 167.438 67.0771C167.438 66.0617 168.119 65.4 169.045 65.3885C169.549 65.3885 170.006 65.554 170.443 65.8634L171 64.9364C170.42 64.4842 169.885 64.3075 169.082 64.3075C167.363 64.3075 166.237 65.4768 166.237 67.0771ZM181.19 64.3075C180.521 64.3075 180.085 64.6169 179.784 65.0803V64.4409H178.634V69.7146H179.795V66.7583C179.795 65.8856 180.175 65.4007 180.933 65.4007C181.181 65.3971 181.428 65.4422 181.658 65.5334L182.016 64.4524C181.759 64.3525 181.424 64.3085 181.189 64.3085M150.098 64.8602C149.54 64.4964 148.771 64.3085 147.923 64.3085C146.572 64.3085 145.702 64.9489 145.702 65.9968C145.702 66.8567 146.35 67.3872 147.542 67.5527L148.09 67.6298C148.726 67.7182 149.027 67.8837 149.027 68.1815C149.027 68.5893 148.604 68.822 147.811 68.822C147.007 68.822 146.428 68.5681 146.037 68.2702L145.492 69.1645C146.128 69.6279 146.931 69.849 147.801 69.849C149.342 69.849 150.234 69.1317 150.234 68.1275C150.234 67.2005 149.532 66.7156 148.371 66.5501L147.824 66.4717C147.322 66.4074 146.92 66.3075 146.92 65.954C146.92 65.5684 147.299 65.3364 147.935 65.3364C148.616 65.3364 149.275 65.5903 149.598 65.7885L150.1 64.8615L150.098 64.8602ZM165.065 64.3094C164.396 64.3094 163.96 64.6189 163.66 65.0822V64.4409H162.511V69.7146H163.67V66.7583C163.67 65.8856 164.05 65.4007 164.808 65.4007C165.056 65.3971 165.303 65.4422 165.533 65.5334L165.891 64.4524C165.634 64.3525 165.299 64.3085 165.064 64.3085M155.167 64.4409H153.27V62.8409H152.098V64.4409H151.016V65.4891H152.098V67.8949C152.098 69.1186 152.578 69.8473 153.95 69.8473C154.453 69.8473 155.033 69.6931 155.401 69.4396L155.066 68.4576C154.72 68.6558 154.341 68.7558 154.039 68.7558C153.459 68.7558 153.27 68.4023 153.27 67.8731V65.49H155.167V64.4409ZM137.825 69.7159V66.4061C137.825 65.1597 137.022 64.321 135.727 64.3097C135.046 64.2985 134.343 64.508 133.852 65.248C133.484 64.6632 132.904 64.3097 132.089 64.3097C131.519 64.3097 130.962 64.4752 130.527 65.0928V64.4409H129.366V69.7146H130.536V66.7905C130.536 65.875 131.049 65.3885 131.842 65.3885C132.612 65.3885 133.002 65.8849 133.002 66.7789V69.714H134.175V66.7898C134.175 65.8743 134.71 65.3878 135.48 65.3878C136.272 65.3878 136.65 65.8843 136.65 66.7783V69.7133L137.825 69.7159Z" fill="#231F20"/>
<path d="M190.38 52.1726V51.4014H190.177L189.942 51.9306L189.709 51.4014H189.505V52.1726H189.649V51.5916L189.869 52.0929H190.018L190.238 51.5903V52.1726H190.381H190.38ZM189.092 52.1726V51.5334H189.352V51.4033H188.688V51.5334H188.947V52.1726H189.091H189.092Z" fill="#F79410"/>
<path d="M167.293 55.48H149.715V24.2461H167.294L167.293 55.48Z" fill="#FF5F00"/>
<path d="M150.83 39.8641C150.83 33.5283 153.83 27.8843 158.503 24.2471C154.966 21.4899 150.592 19.9934 146.088 20C134.993 20 126 28.8933 126 39.8641C126 50.8349 134.993 59.7282 146.088 59.7282C150.592 59.7348 154.966 58.2384 158.503 55.4811C153.831 51.8445 150.83 46.2002 150.83 39.8641Z" fill="#EB001B"/>
<path d="M191.008 39.8641C191.008 50.8349 182.015 59.7282 170.92 59.7282C166.416 59.7347 162.041 58.2383 158.503 55.4811C163.177 51.8439 166.177 46.2002 166.177 39.8641C166.177 33.528 163.177 27.8843 158.503 24.2471C162.041 21.49 166.415 19.9936 170.92 20C182.014 20 191.008 28.8933 191.008 39.8641" fill="#F79E1B"/>
</g>
<defs>
<clipPath id="clip0_601_9309">
<rect width="65" height="50" fill="white" transform="translate(126 20)"/>
</clipPath>
</defs>
</svg>
