<svg width="84" height="84" viewBox="0 0 84 84" fill="none" xmlns="http://www.w3.org/2000/svg">
<g clip-path="url(#clip0_204_812)">
<path fill-rule="evenodd" clip-rule="evenodd" d="M42.0001 1.64148C33.6015 1.64148 26.7925 8.45314 26.7925 16.8608C26.7925 25.2684 33.6015 32.0848 42.0001 32.0848C50.3941 32.0848 57.2032 25.2684 57.2032 16.8608C57.2032 8.45314 50.394 1.64148 42.0001 1.64148Z" fill="#ACC4D8"/>
<path fill-rule="evenodd" clip-rule="evenodd" d="M42.0001 40.1947H12.3424L6.46289 51.7431H10.1532H36.1205L42.0001 40.1947Z" fill="#FFF1D8"/>
<path fill-rule="evenodd" clip-rule="evenodd" d="M71.6576 40.1947H42L47.8795 51.7431H73.8422H77.5372L71.6576 40.1947Z" fill="#FFF1D8"/>
<path fill-rule="evenodd" clip-rule="evenodd" d="M36.1206 51.7431H10.1533V82.3586H42.0003V40.1947L36.1206 51.7431Z" fill="#F7BD7F"/>
<path fill-rule="evenodd" clip-rule="evenodd" d="M73.8422 51.7431H47.8795L42 40.1947V82.3586H73.8422V51.7431Z" fill="#F7BD7F"/>
<path d="M79.0001 50.9982L73.1206 39.4499C72.8404 38.8997 72.2753 38.5532 71.6578 38.5532H42.0002H12.3423C11.7248 38.5532 11.1596 38.8997 10.8794 39.4499L4.99993 50.9982C4.74091 51.5072 4.76487 52.114 5.06329 52.6009C5.3617 53.0877 5.89172 53.3843 6.46262 53.3843H8.51147V82.3586C8.51147 83.265 9.24634 84 10.1529 84H73.842C74.7486 84 75.4835 83.265 75.4835 82.3586V53.3845H77.5371C78.1081 53.3845 78.6382 53.0877 78.9364 52.601C79.2352 52.114 79.2591 51.5072 79.0001 50.9982ZM70.6516 41.8361L74.8597 50.1014H48.8859L44.6777 41.8361H70.6516ZM13.3486 41.8361H39.3225L35.1143 50.1014H9.14047L13.3486 41.8361ZM72.2009 80.7171H43.6416V71.6198C43.6416 70.7134 42.9067 69.9783 42.0002 69.9783C41.0936 69.9783 40.3587 70.7134 40.3587 71.6198V80.7171H11.7947V53.3845H36.1207C36.7382 53.3845 37.3034 53.0381 37.5835 52.4878L40.3587 47.0367V56.8798C40.3587 57.7862 41.0936 58.5212 42.0002 58.5212C42.9067 58.5212 43.6416 57.7862 43.6416 56.8798V47.0367L46.4168 52.4878C46.697 53.0381 47.2621 53.3845 47.8797 53.3845H72.2009V80.7171Z" fill="#1D393C"/>
<path d="M27.9637 71.7278H18.617C17.7105 71.7278 16.9756 72.4628 16.9756 73.3692C16.9756 74.2756 17.7105 75.0107 18.617 75.0107H27.9637C28.8703 75.0107 29.6052 74.2756 29.6052 73.3692C29.6052 72.4628 28.8703 71.7278 27.9637 71.7278Z" fill="#1D393C"/>
<path d="M42 33.7264C51.2879 33.7264 58.8444 26.1605 58.8444 16.8609C58.8443 7.56377 51.2879 0 42 0C32.7094 0 25.1509 7.56377 25.1509 16.8609C25.1509 26.1605 32.7092 33.7264 42 33.7264ZM42 3.28289C49.4779 3.28289 55.5616 9.37395 55.5616 16.8609C55.5616 24.3505 49.4779 30.4435 42 30.4435C34.5196 30.4435 28.4338 24.3505 28.4338 16.8609C28.4338 9.37395 34.5194 3.28289 42 3.28289Z" fill="#1D393C"/>
<path d="M34.6411 19.3228L39.0101 23.0262C39.3077 23.2785 39.6842 23.4155 40.0715 23.4155C40.1181 23.4155 40.1648 23.4136 40.2116 23.4096C40.6473 23.3722 41.0499 23.1628 41.3304 22.8274L49.5524 13.0007C50.1341 12.3056 50.0421 11.2703 49.3469 10.6884C48.6516 10.107 47.6165 10.1988 47.0348 10.8941L39.8728 19.4537L36.7641 16.8184C36.0726 16.2323 35.0367 16.3173 34.4507 17.0091C33.8642 17.7009 33.9495 18.7364 34.6411 19.3228Z" fill="#1D393C"/>
<path d="M9.75375 18.5024H16.8556C17.7622 18.5024 18.4971 17.7673 18.4971 16.8609C18.4971 15.9545 17.7622 15.2195 16.8556 15.2195H9.75375C8.84718 15.2195 8.1123 15.9545 8.1123 16.8609C8.1123 17.7673 8.84718 18.5024 9.75375 18.5024Z" fill="#1D393C"/>
<path d="M8.9878 7.08066L16.0897 10.8263C16.3339 10.9551 16.5957 11.0162 16.8541 11.0162C17.4434 11.0162 18.0133 10.6979 18.3074 10.1401C18.7303 9.3383 18.4231 8.34539 17.6213 7.92256L10.5193 4.17695C9.71775 3.75411 8.72451 4.06106 8.30167 4.86307C7.87884 5.66492 8.18595 6.65783 8.9878 7.08066Z" fill="#1D393C"/>
<path d="M8.30123 28.8577C8.59522 29.4158 9.16513 29.7346 9.7549 29.7346C10.0128 29.7346 10.2746 29.6737 10.5185 29.5452L17.6204 25.8043C18.4224 25.3818 18.7301 24.3891 18.3076 23.5871C17.8851 22.7849 16.8924 22.4773 16.0904 22.8996L8.98851 26.6405C8.1865 27.063 7.87889 28.0557 8.30123 28.8577Z" fill="#1D393C"/>
<path d="M67.14 18.5024H74.2418C75.1484 18.5024 75.8833 17.7673 75.8833 16.8609C75.8833 15.9545 75.1484 15.2195 74.2418 15.2195H67.14C66.2334 15.2195 65.4985 15.9545 65.4985 16.8609C65.4985 17.7673 66.2334 18.5024 67.14 18.5024Z" fill="#1D393C"/>
<path d="M67.1416 11.0162C67.3998 11.0162 67.6617 10.9551 67.906 10.8263L75.0078 7.08065C75.8097 6.65782 76.1168 5.66491 75.694 4.86306C75.271 4.06122 74.2782 3.75378 73.4764 4.17694L66.3745 7.92255C65.5727 8.34539 65.2656 9.33829 65.6884 10.1401C65.9825 10.6979 66.5521 11.0162 67.1416 11.0162Z" fill="#1D393C"/>
<path d="M66.3753 25.8042L73.4772 29.545C73.7212 29.6735 73.9829 29.7344 74.2408 29.7344C74.8305 29.7344 75.4004 29.4158 75.6944 28.8576C76.1169 28.0556 75.8092 27.0628 75.0071 26.6403L67.9053 22.8995C67.1031 22.477 66.1105 22.7846 65.688 23.5869C65.2655 24.3889 65.5733 25.3817 66.3753 25.8042Z" fill="#1D393C"/>
<path d="M42.0003 62.6084C41.0938 62.6084 40.3589 63.3434 40.3589 64.2498V64.2592C40.3589 65.1656 41.0938 65.896 42.0003 65.896C42.9069 65.896 43.6418 65.1564 43.6418 64.25C43.6418 63.3436 42.9069 62.6084 42.0003 62.6084Z" fill="#1D393C"/>
</g>
<defs>
<clipPath id="clip0_204_812">
<rect width="84" height="84" fill="white"/>
</clipPath>
</defs>
</svg>
